<mxfile host="Electron" agent="Mozilla/5.0 (Windows NT 10.0; Win64; x64) AppleWebKit/537.36 (KHTML, like Gecko) draw.io/26.2.15 Chrome/134.0.6998.205 Electron/35.2.1 Safari/537.36" version="26.2.15">
  <diagram id="C5RBs43oDa-KdzZeNtuy" name="Page-1">
    <mxGraphModel dx="2474" dy="1268" grid="1" gridSize="10" guides="1" tooltips="1" connect="1" arrows="1" fold="1" page="1" pageScale="1" pageWidth="827" pageHeight="1169" math="0" shadow="0">
      <root>
        <mxCell id="WIyWlLk6GJQsqaUBKTNV-0" />
        <mxCell id="WIyWlLk6GJQsqaUBKTNV-1" parent="WIyWlLk6GJQsqaUBKTNV-0" />
        <mxCell id="TU2M_SEkqzbTZgtA4BRs-8" style="edgeStyle=orthogonalEdgeStyle;rounded=0;orthogonalLoop=1;jettySize=auto;html=1;exitX=0.5;exitY=1;exitDx=0;exitDy=0;entryX=0.5;entryY=0;entryDx=0;entryDy=0;" parent="WIyWlLk6GJQsqaUBKTNV-1" source="TU2M_SEkqzbTZgtA4BRs-0" target="TU2M_SEkqzbTZgtA4BRs-3" edge="1">
          <mxGeometry relative="1" as="geometry" />
        </mxCell>
        <mxCell id="TU2M_SEkqzbTZgtA4BRs-0" value="F_Q_Continuous" style="rounded=1;whiteSpace=wrap;html=1;" parent="WIyWlLk6GJQsqaUBKTNV-1" vertex="1">
          <mxGeometry x="75" y="480" width="120" height="60" as="geometry" />
        </mxCell>
        <mxCell id="TU2M_SEkqzbTZgtA4BRs-7" style="edgeStyle=orthogonalEdgeStyle;rounded=0;orthogonalLoop=1;jettySize=auto;html=1;exitX=0.5;exitY=1;exitDx=0;exitDy=0;entryX=0.5;entryY=0;entryDx=0;entryDy=0;" parent="WIyWlLk6GJQsqaUBKTNV-1" source="TU2M_SEkqzbTZgtA4BRs-1" target="TU2M_SEkqzbTZgtA4BRs-0" edge="1">
          <mxGeometry relative="1" as="geometry" />
        </mxCell>
        <mxCell id="TU2M_SEkqzbTZgtA4BRs-1" value="Q_Record_Flag" style="rhombus;whiteSpace=wrap;html=1;" parent="WIyWlLk6GJQsqaUBKTNV-1" vertex="1">
          <mxGeometry x="80" y="340" width="110" height="110" as="geometry" />
        </mxCell>
        <mxCell id="TU2M_SEkqzbTZgtA4BRs-6" style="edgeStyle=orthogonalEdgeStyle;rounded=0;orthogonalLoop=1;jettySize=auto;html=1;exitX=0.5;exitY=1;exitDx=0;exitDy=0;entryX=0.5;entryY=0;entryDx=0;entryDy=0;" parent="WIyWlLk6GJQsqaUBKTNV-1" source="TU2M_SEkqzbTZgtA4BRs-2" target="TU2M_SEkqzbTZgtA4BRs-1" edge="1">
          <mxGeometry relative="1" as="geometry" />
        </mxCell>
        <mxCell id="TU2M_SEkqzbTZgtA4BRs-2" value="my_test" style="ellipse;whiteSpace=wrap;html=1;" parent="WIyWlLk6GJQsqaUBKTNV-1" vertex="1">
          <mxGeometry x="105" y="260" width="60" height="50" as="geometry" />
        </mxCell>
        <mxCell id="TU2M_SEkqzbTZgtA4BRs-9" style="edgeStyle=orthogonalEdgeStyle;rounded=0;orthogonalLoop=1;jettySize=auto;html=1;exitX=0.5;exitY=1;exitDx=0;exitDy=0;entryX=0.5;entryY=0;entryDx=0;entryDy=0;" parent="WIyWlLk6GJQsqaUBKTNV-1" source="TU2M_SEkqzbTZgtA4BRs-3" target="TU2M_SEkqzbTZgtA4BRs-4" edge="1">
          <mxGeometry relative="1" as="geometry" />
        </mxCell>
        <mxCell id="TU2M_SEkqzbTZgtA4BRs-3" value="quaternion_self_test" style="ellipse;whiteSpace=wrap;html=1;" parent="WIyWlLk6GJQsqaUBKTNV-1" vertex="1">
          <mxGeometry x="75" y="570" width="120" height="60" as="geometry" />
        </mxCell>
        <mxCell id="TU2M_SEkqzbTZgtA4BRs-38" style="edgeStyle=orthogonalEdgeStyle;rounded=0;orthogonalLoop=1;jettySize=auto;html=1;exitX=1;exitY=0.5;exitDx=0;exitDy=0;entryX=0;entryY=0.25;entryDx=0;entryDy=0;" parent="WIyWlLk6GJQsqaUBKTNV-1" source="TU2M_SEkqzbTZgtA4BRs-4" target="TU2M_SEkqzbTZgtA4BRs-15" edge="1">
          <mxGeometry relative="1" as="geometry" />
        </mxCell>
        <mxCell id="TU2M_SEkqzbTZgtA4BRs-4" value="write_imu_array_to_file" style="ellipse;whiteSpace=wrap;html=1;" parent="WIyWlLk6GJQsqaUBKTNV-1" vertex="1">
          <mxGeometry x="70" y="657" width="130" height="55" as="geometry" />
        </mxCell>
        <mxCell id="TU2M_SEkqzbTZgtA4BRs-30" style="edgeStyle=orthogonalEdgeStyle;rounded=0;orthogonalLoop=1;jettySize=auto;html=1;exitX=1;exitY=0.5;exitDx=0;exitDy=0;entryX=0;entryY=0.5;entryDx=0;entryDy=0;" parent="WIyWlLk6GJQsqaUBKTNV-1" source="TU2M_SEkqzbTZgtA4BRs-11" target="TU2M_SEkqzbTZgtA4BRs-18" edge="1">
          <mxGeometry relative="1" as="geometry">
            <Array as="points">
              <mxPoint x="1000" y="490" />
              <mxPoint x="1000" y="564" />
            </Array>
          </mxGeometry>
        </mxCell>
        <mxCell id="TU2M_SEkqzbTZgtA4BRs-11" value="F_Q_Stop" style="rounded=1;whiteSpace=wrap;html=1;" parent="WIyWlLk6GJQsqaUBKTNV-1" vertex="1">
          <mxGeometry x="310" y="460" width="120" height="60" as="geometry" />
        </mxCell>
        <mxCell id="TU2M_SEkqzbTZgtA4BRs-26" style="edgeStyle=orthogonalEdgeStyle;rounded=0;orthogonalLoop=1;jettySize=auto;html=1;exitX=1;exitY=0.5;exitDx=0;exitDy=0;entryX=0;entryY=0.5;entryDx=0;entryDy=0;" parent="WIyWlLk6GJQsqaUBKTNV-1" source="TU2M_SEkqzbTZgtA4BRs-13" target="TU2M_SEkqzbTZgtA4BRs-18" edge="1">
          <mxGeometry relative="1" as="geometry">
            <Array as="points">
              <mxPoint x="1000" y="630" />
              <mxPoint x="1000" y="564" />
            </Array>
          </mxGeometry>
        </mxCell>
        <mxCell id="TU2M_SEkqzbTZgtA4BRs-13" value="&amp;gt;=&amp;nbsp; Max_Q_Row" style="rounded=1;whiteSpace=wrap;html=1;" parent="WIyWlLk6GJQsqaUBKTNV-1" vertex="1">
          <mxGeometry x="740" y="600" width="120" height="60" as="geometry" />
        </mxCell>
        <mxCell id="TU2M_SEkqzbTZgtA4BRs-20" style="edgeStyle=orthogonalEdgeStyle;rounded=0;orthogonalLoop=1;jettySize=auto;html=1;exitX=1;exitY=0.5;exitDx=0;exitDy=0;entryX=0;entryY=0.5;entryDx=0;entryDy=0;" parent="WIyWlLk6GJQsqaUBKTNV-1" source="TU2M_SEkqzbTZgtA4BRs-15" target="TU2M_SEkqzbTZgtA4BRs-16" edge="1">
          <mxGeometry relative="1" as="geometry" />
        </mxCell>
        <mxCell id="TU2M_SEkqzbTZgtA4BRs-15" value="F_Q_Continuous" style="rounded=1;whiteSpace=wrap;html=1;" parent="WIyWlLk6GJQsqaUBKTNV-1" vertex="1">
          <mxGeometry x="310" y="670" width="120" height="60" as="geometry" />
        </mxCell>
        <mxCell id="TU2M_SEkqzbTZgtA4BRs-21" style="edgeStyle=orthogonalEdgeStyle;rounded=0;orthogonalLoop=1;jettySize=auto;html=1;exitX=1;exitY=0.5;exitDx=0;exitDy=0;entryX=0;entryY=0.5;entryDx=0;entryDy=0;" parent="WIyWlLk6GJQsqaUBKTNV-1" source="TU2M_SEkqzbTZgtA4BRs-16" target="TU2M_SEkqzbTZgtA4BRs-13" edge="1">
          <mxGeometry relative="1" as="geometry" />
        </mxCell>
        <mxCell id="TU2M_SEkqzbTZgtA4BRs-22" style="edgeStyle=orthogonalEdgeStyle;rounded=0;orthogonalLoop=1;jettySize=auto;html=1;exitX=1;exitY=0.5;exitDx=0;exitDy=0;entryX=0;entryY=0.5;entryDx=0;entryDy=0;" parent="WIyWlLk6GJQsqaUBKTNV-1" source="TU2M_SEkqzbTZgtA4BRs-16" target="TU2M_SEkqzbTZgtA4BRs-17" edge="1">
          <mxGeometry relative="1" as="geometry" />
        </mxCell>
        <mxCell id="TU2M_SEkqzbTZgtA4BRs-16" value="Q_Record_Index" style="rhombus;whiteSpace=wrap;html=1;" parent="WIyWlLk6GJQsqaUBKTNV-1" vertex="1">
          <mxGeometry x="510" y="645" width="110" height="110" as="geometry" />
        </mxCell>
        <mxCell id="TU2M_SEkqzbTZgtA4BRs-34" style="edgeStyle=orthogonalEdgeStyle;rounded=0;orthogonalLoop=1;jettySize=auto;html=1;exitX=1;exitY=0.5;exitDx=0;exitDy=0;entryX=0;entryY=0.5;entryDx=0;entryDy=0;" parent="WIyWlLk6GJQsqaUBKTNV-1" source="TU2M_SEkqzbTZgtA4BRs-17" target="TU2M_SEkqzbTZgtA4BRs-19" edge="1">
          <mxGeometry relative="1" as="geometry" />
        </mxCell>
        <mxCell id="TU2M_SEkqzbTZgtA4BRs-17" value="&amp;lt;&amp;nbsp; Max_Q_Row" style="rounded=1;whiteSpace=wrap;html=1;" parent="WIyWlLk6GJQsqaUBKTNV-1" vertex="1">
          <mxGeometry x="740" y="740" width="120" height="60" as="geometry" />
        </mxCell>
        <mxCell id="TU2M_SEkqzbTZgtA4BRs-32" style="edgeStyle=orthogonalEdgeStyle;rounded=0;orthogonalLoop=1;jettySize=auto;html=1;exitX=1;exitY=0.5;exitDx=0;exitDy=0;entryX=0;entryY=0.5;entryDx=0;entryDy=0;" parent="WIyWlLk6GJQsqaUBKTNV-1" source="TU2M_SEkqzbTZgtA4BRs-18" target="TU2M_SEkqzbTZgtA4BRs-25" edge="1">
          <mxGeometry relative="1" as="geometry">
            <Array as="points">
              <mxPoint x="1730" y="564" />
              <mxPoint x="1730" y="690" />
            </Array>
          </mxGeometry>
        </mxCell>
        <mxCell id="TU2M_SEkqzbTZgtA4BRs-18" value="Q_Record_Array 清空&lt;div&gt;Q_Record_Index&amp;nbsp; =&amp;nbsp; 0&lt;/div&gt;" style="text;strokeColor=none;fillColor=none;html=1;fontSize=24;fontStyle=1;verticalAlign=middle;align=center;" parent="WIyWlLk6GJQsqaUBKTNV-1" vertex="1">
          <mxGeometry x="1155" y="527" width="270" height="73" as="geometry" />
        </mxCell>
        <mxCell id="TU2M_SEkqzbTZgtA4BRs-36" style="edgeStyle=orthogonalEdgeStyle;rounded=0;orthogonalLoop=1;jettySize=auto;html=1;exitX=1;exitY=0.5;exitDx=0;exitDy=0;entryX=0;entryY=0.5;entryDx=0;entryDy=0;" parent="WIyWlLk6GJQsqaUBKTNV-1" source="TU2M_SEkqzbTZgtA4BRs-19" target="TU2M_SEkqzbTZgtA4BRs-25" edge="1">
          <mxGeometry relative="1" as="geometry" />
        </mxCell>
        <mxCell id="TU2M_SEkqzbTZgtA4BRs-19" value="&lt;div&gt;索引自增, 取余防止索引越界&lt;/div&gt;Q_Record_Index&amp;nbsp; =&amp;nbsp; (Q_Record_Index + 1)&amp;nbsp; %&amp;nbsp; Max_Q_Row;" style="text;strokeColor=none;fillColor=none;html=1;fontSize=24;fontStyle=1;verticalAlign=middle;align=center;" parent="WIyWlLk6GJQsqaUBKTNV-1" vertex="1">
          <mxGeometry x="940" y="730" width="700" height="80" as="geometry" />
        </mxCell>
        <mxCell id="TU2M_SEkqzbTZgtA4BRs-37" style="edgeStyle=orthogonalEdgeStyle;rounded=0;orthogonalLoop=1;jettySize=auto;html=1;exitX=1;exitY=0.5;exitDx=0;exitDy=0;entryX=0;entryY=0.75;entryDx=0;entryDy=0;" parent="WIyWlLk6GJQsqaUBKTNV-1" source="TU2M_SEkqzbTZgtA4BRs-25" target="TU2M_SEkqzbTZgtA4BRs-15" edge="1">
          <mxGeometry relative="1" as="geometry">
            <Array as="points">
              <mxPoint x="2040" y="690" />
              <mxPoint x="2040" y="920" />
              <mxPoint x="220" y="920" />
              <mxPoint x="220" y="715" />
            </Array>
          </mxGeometry>
        </mxCell>
        <mxCell id="TU2M_SEkqzbTZgtA4BRs-25" value="F_Q_Continuous" style="rounded=1;whiteSpace=wrap;html=1;" parent="WIyWlLk6GJQsqaUBKTNV-1" vertex="1">
          <mxGeometry x="1820" y="660" width="120" height="60" as="geometry" />
        </mxCell>
        <mxCell id="Hb5gWY8EoObPx0AJY24N-0" value="继续赋值" style="text;strokeColor=none;fillColor=none;html=1;fontSize=24;fontStyle=1;verticalAlign=middle;align=center;" vertex="1" parent="WIyWlLk6GJQsqaUBKTNV-1">
          <mxGeometry x="310" y="620" width="120" height="50" as="geometry" />
        </mxCell>
        <mxCell id="Hb5gWY8EoObPx0AJY24N-1" value="停止赋值" style="text;strokeColor=none;fillColor=none;html=1;fontSize=24;fontStyle=1;verticalAlign=middle;align=center;" vertex="1" parent="WIyWlLk6GJQsqaUBKTNV-1">
          <mxGeometry x="310" y="410" width="120" height="50" as="geometry" />
        </mxCell>
        <mxCell id="Hb5gWY8EoObPx0AJY24N-2" value="索引达到最大长度, 停止赋值" style="text;strokeColor=none;fillColor=none;html=1;fontSize=24;fontStyle=1;verticalAlign=middle;align=center;" vertex="1" parent="WIyWlLk6GJQsqaUBKTNV-1">
          <mxGeometry x="640" y="550" width="320" height="50" as="geometry" />
        </mxCell>
        <mxCell id="Hb5gWY8EoObPx0AJY24N-3" value="索引未达到最大长度, 继续赋值" style="text;strokeColor=none;fillColor=none;html=1;fontSize=24;fontStyle=1;verticalAlign=middle;align=center;" vertex="1" parent="WIyWlLk6GJQsqaUBKTNV-1">
          <mxGeometry x="625" y="800" width="350" height="50" as="geometry" />
        </mxCell>
        <mxCell id="Hb5gWY8EoObPx0AJY24N-4" value="继续赋值" style="text;strokeColor=none;fillColor=none;html=1;fontSize=24;fontStyle=1;verticalAlign=middle;align=center;" vertex="1" parent="WIyWlLk6GJQsqaUBKTNV-1">
          <mxGeometry x="1820" y="610" width="120" height="50" as="geometry" />
        </mxCell>
      </root>
    </mxGraphModel>
  </diagram>
</mxfile>
